<?xml version="1.0" encoding="UTF-8"?>
<svg version="1.1" xmlns="http://www.w3.org/2000/svg" width="1812" height="752">
<path d="M0 0 C597.96 0 1195.92 0 1812 0 C1812 248.16 1812 496.32 1812 752 C1214.04 752 616.08 752 0 752 C0 503.84 0 255.68 0 0 Z " fill="#000000" transform="translate(0,0)"/>
<path d="M0 0 C1.37365156 -0.00620547 2.74729333 -0.01502837 4.12091327 -0.02622539 C7.8765681 -0.04924468 11.63128412 -0.03506909 15.38691902 -0.01451623 C19.44420564 0.00115601 23.50135376 -0.01782235 27.55862427 -0.03231812 C35.49812752 -0.05511574 43.4372782 -0.04568556 51.37677434 -0.02481725 C57.82820217 -0.00852216 64.27953388 -0.00433639 70.73097992 -0.00878334 C72.10911528 -0.00972935 72.10911528 -0.00972935 73.51509176 -0.01069448 C75.38157332 -0.01204054 77.24805486 -0.01342012 79.11453637 -0.01483283 C96.60533453 -0.0267624 114.09593944 -0.00271984 131.58669361 0.03418525 C146.59747591 0.06509774 161.60803603 0.06743826 176.61883545 0.04838562 C194.0539299 0.02628138 211.48889985 0.02012044 228.9240005 0.04070824 C230.78232875 0.04287118 232.64065701 0.04502028 234.49898529 0.04715538 C235.41331145 0.04822175 236.32763761 0.04928811 237.26967062 0.05038679 C243.71605064 0.0568591 250.16236661 0.05208756 256.60874176 0.04313087 C264.46054205 0.03260362 272.31208159 0.04006982 280.16383365 0.07058666 C284.17062612 0.08573011 288.17700673 0.0928599 292.18381119 0.07839584 C295.85032208 0.06539847 299.51601625 0.07541739 303.1824325 0.10395458 C305.13975674 0.11322749 307.09714951 0.09791804 309.05442929 0.08179361 C317.58077111 0.18208793 317.58077111 0.18208793 321.53608322 3.13902569 C322.13380161 4.00235421 322.73152 4.86568274 323.34735107 5.75517273 C324.04860107 6.58017273 324.74985107 7.40517273 325.47235107 8.25517273 C327.34735107 10.75517273 327.34735107 10.75517273 328.59735107 13.25517273 C330.27648811 16.03084987 330.27648811 16.03084987 333.70674133 17.68371582 C340.09960678 21.58486479 345.10906724 27.11529177 350.34710693 32.39848328 C351.53813131 33.58871577 352.72980986 34.77829395 353.92208862 35.9672699 C357.1412304 39.18130127 360.35100545 42.40453796 363.55899119 45.62969947 C366.92064629 49.00643832 370.29045281 52.37502407 373.65925598 55.74462891 C379.30877918 61.39783746 384.9526467 67.05664069 390.5927124 72.71928406 C397.83808514 79.99360097 405.09276213 87.25856475 412.35039425 94.520648 C418.58972221 100.76395067 424.82478389 107.01150896 431.05915761 113.25975823 C433.06483225 115.2695343 435.07109531 117.27872157 437.07743645 119.28783226 C440.222768 122.43804778 443.36543259 125.59090044 446.50601578 128.74584961 C447.66094055 129.90530528 448.81671647 131.06391383 449.97338676 132.22162819 C451.54702662 133.79700788 453.11756522 135.37541363 454.68730164 136.9546814 C455.5682849 137.83863933 456.44926817 138.72259726 457.3569479 139.63334179 C460.32452026 142.79686511 460.47288793 144.50143456 460.47763634 148.7377758 C460.48126068 149.79824336 460.48488503 150.85871092 460.48861921 151.95131385 C460.48701683 153.71275503 460.48701683 153.71275503 460.48538208 155.50978088 C460.48820336 156.75006739 460.49102464 157.99035389 460.49393141 159.26822484 C460.50084671 162.7220766 460.50330489 166.17588135 460.50398254 169.62973666 C460.50581868 173.35033701 460.51342348 177.07092566 460.52046204 180.79151917 C460.53199953 187.24232208 460.5402376 193.69312236 460.54658127 200.14393234 C460.55689401 210.33590679 460.5774538 220.52784847 460.59970093 230.71980286 C460.607181 234.20450391 460.61459467 237.68920509 460.6219883 241.17390633 C460.62383886 242.04481906 460.62568943 242.91573178 460.62759607 243.81303581 C460.64853258 253.73173321 460.66735666 263.65043423 460.6852417 273.56913757 C460.68687988 274.47610422 460.68851806 275.38307086 460.69020589 276.31752135 C460.71649832 291.01956774 460.73513714 305.72161664 460.7518336 320.4236766 C460.76924038 335.50719439 460.79807043 350.59066274 460.83672297 365.67414105 C460.86015141 374.98385362 460.87412009 384.29348558 460.87605061 393.60322787 C460.87815633 399.98079405 460.8910548 406.35827997 460.91252993 412.73581015 C460.92458485 416.418301 460.93169318 420.10063251 460.92581749 423.78314209 C460.91956823 427.77106872 460.93629779 431.75870684 460.95535278 435.74659729 C460.94982309 436.91642997 460.94429339 438.08626264 460.93859613 439.2915448 C460.94743597 440.35722785 460.95627581 441.4229109 460.96538353 442.52088737 C460.96674006 443.44176419 460.96809659 444.36264101 460.96949422 445.31142318 C461.41895731 448.21827858 462.52023066 449.49983948 464.34735107 451.75517273 C465.05579185 456.37458954 464.94883475 461.02468223 464.97235107 465.69267273 C465.01746826 466.96820007 465.06258545 468.24372742 465.10906982 469.5579071 C465.1760226 478.67783188 465.1760226 478.67783188 462.85687256 481.69291687 C461.05579132 483.00134592 459.40039086 483.90719599 457.34735107 484.75517273 C453.26129571 486.75814105 450.50630217 488.48340195 447.34735107 491.75517273 C446.68735107 491.75517273 446.02735107 491.75517273 445.34735107 491.75517273 C445.01735107 492.74517273 444.68735107 493.73517273 444.34735107 494.75517273 C442.71063232 495.74736023 442.71063232 495.74736023 440.65985107 496.63017273 C437.83893429 497.94257786 435.55471361 499.25752226 433.22235107 501.31767273 C430.33298695 503.767351 427.76150225 505.14851335 424.34735107 506.75517273 C418.83924087 509.54829244 414.58044212 512.26553071 410.34735107 516.75517273 C409.68735107 516.75517273 409.02735107 516.75517273 408.34735107 516.75517273 C408.01735107 517.74517273 407.68735107 518.73517273 407.34735107 519.75517273 C402.34735107 520.75517273 402.34735107 520.75517273 399.84735107 520.94267273 C396.72176152 521.95848933 395.73168118 523.70841644 393.80047607 526.26298523 C391.20721611 528.92595648 387.82148332 529.67949998 384.34735107 530.75517273 C381.99365301 531.635822 381.99365301 531.635822 380.34735107 532.75517273 C380.01735107 533.74517273 379.68735107 534.73517273 379.34735107 535.75517273 C378.6486792 535.8763446 377.95000732 535.99751648 377.23016357 536.12236023 C375.86504639 536.37372742 375.86504639 536.37372742 374.47235107 536.63017273 C373.5674292 536.7925946 372.66250732 536.95501648 371.73016357 537.12236023 C369.18229119 537.58561976 369.18229119 537.58561976 367.34735107 539.75517273 C362.26005152 542.10315714 357.13423595 544.24846639 351.59735107 545.25517273 C349.15880551 545.58580129 349.15880551 545.58580129 347.34735107 547.75517273 C345.02459931 548.15564717 342.6899575 548.49488313 340.34735107 548.75517273 C340.01735107 549.74517273 339.68735107 550.73517273 339.34735107 551.75517273 C338.49012451 551.82993835 337.63289795 551.90470398 336.74969482 551.98173523 C329.95668259 552.76289334 325.7183646 553.47403474 320.91375732 558.42314148 C318.26956535 560.67169376 315.73504282 560.6168996 312.34735107 560.75517273 C312.34735107 561.41517273 312.34735107 562.07517273 312.34735107 562.75517273 C309.38578147 564.23595753 306.51228813 564.1083131 303.22235107 564.31767273 C301.94102295 564.40146179 300.65969482 564.48525085 299.33953857 564.57157898 C298.3521167 564.63216492 297.36469482 564.69275085 296.34735107 564.75517273 C296.01735107 565.74517273 295.68735107 566.73517273 295.34735107 567.75517273 C294.72989014 567.86474304 294.1124292 567.97431335 293.47625732 568.08720398 C292.20588623 568.32503601 292.20588623 568.32503601 290.90985107 568.56767273 C290.08614014 568.71849304 289.2624292 568.86931335 288.41375732 569.02470398 C285.97905147 569.60469124 283.72665057 570.27770419 281.36688232 571.08720398 C275.145939 573.20740699 268.81052239 574.89954758 262.47235107 576.63017273 C261.17668283 576.98518366 259.88102866 577.34024601 258.58538818 577.69535828 C254.84070448 578.72019965 251.09425037 579.73845995 247.34735107 580.75517273 C246.36621338 581.02184753 245.38507568 581.28852234 244.37420654 581.5632782 C217.69104626 588.78966082 217.69104626 588.78966082 206.92156982 589.44657898 C204.59796941 589.72512895 202.42996627 590.16521352 200.15203857 590.68876648 C195.39018197 591.77860558 190.61715003 592.55215242 185.78485107 593.25517273 C184.61599365 593.43112976 184.61599365 593.43112976 183.42352295 593.61064148 C181.711866 593.86391769 179.99864794 594.1067692 178.28436279 594.34159851 C176.23505323 594.63017128 174.18982969 594.94865249 172.14862061 595.2898407 C158.27824657 597.3898343 144.34165489 596.97382148 130.34735107 596.88017273 C127.72235449 596.87012148 125.09735418 596.86099943 122.47235107 596.85282898 C116.09726849 596.83098876 109.72232762 596.79768157 103.34735107 596.75517273 C103.34735107 597.74517273 103.34735107 598.73517273 103.34735107 599.75517273 C102.35735107 599.75517273 101.36735107 599.75517273 100.34735107 599.75517273 C100.34735107 598.76517273 100.34735107 597.77517273 100.34735107 596.75517273 C80.21735107 596.75517273 60.08735107 596.75517273 39.34735107 596.75517273 C39.34735107 596.09517273 39.34735107 595.43517273 39.34735107 594.75517273 C34.84230764 593.3466191 30.13306345 593.41769781 25.45477295 593.2375946 C20.81634191 593.00501481 16.80741095 592.15272543 12.34735107 590.75517273 C9.87093243 590.11937161 7.39158703 589.49489136 4.90985107 588.88017273 C4.22608398 588.70727722 3.54231689 588.53438171 2.83782959 588.35624695 C-0.76529213 587.44898904 -4.36979319 586.59074412 -8.00421143 585.81767273 C-15.51029045 584.17700913 -21.46553939 582.82788633 -26.65264893 576.75517273 C-27.56945535 574.03600188 -27.77862883 571.55395419 -27.78260076 568.69723445 C-27.78612918 567.89213792 -27.7896576 567.0870414 -27.79329294 566.257548 C-27.79209516 565.37700828 -27.79089739 564.49646855 -27.78966331 563.5892458 C-27.79231514 562.64690264 -27.79496697 561.70455949 -27.79769915 560.73366049 C-27.80540482 557.55204465 -27.80595181 554.37046733 -27.80654907 551.18884277 C-27.81056284 548.89429022 -27.81500092 546.59973838 -27.81982863 544.3051874 C-27.83180923 537.98092423 -27.83744601 531.65666869 -27.84200978 525.33239639 C-27.84687116 519.21816029 -27.85732714 513.10393234 -27.86701924 506.98970241 C-27.89264798 490.60603668 -27.90768416 474.22236628 -27.92052971 457.83868626 C-27.92478426 452.41273674 -27.92934998 446.98678756 -27.93411303 441.56083846 C-27.95937147 412.71443244 -27.9814209 383.86802586 -27.99384117 355.02161121 C-27.99676252 348.33831594 -27.99973004 341.65502069 -28.00274658 334.97172546 C-28.00311749 334.14140646 -28.0034884 333.31108746 -28.00387055 332.45560727 C-28.01602829 305.52970762 -28.04697648 278.60387331 -28.08866811 251.67800435 C-28.13144621 224.00001328 -28.1580809 196.32205672 -28.16331589 168.64403169 C-28.16405634 164.73558496 -28.16496703 160.8271383 -28.16597366 156.91869164 C-28.16616428 156.14946963 -28.16635489 155.38024762 -28.16655128 154.58771585 C-28.17006597 142.20429854 -28.1903688 129.82096303 -28.2167703 117.43757578 C-28.24290369 104.9923797 -28.25064711 92.54727822 -28.23966901 80.10205863 C-28.23421546 73.35870004 -28.23744119 66.61561734 -28.26213455 59.87229347 C-28.28454621 53.7006747 -28.28394966 47.5295045 -28.26493068 41.35787829 C-28.26211937 39.12366065 -28.26779154 36.88941311 -28.28274362 34.65524373 C-28.30181873 31.61971707 -28.29008074 28.58579509 -28.27068138 25.55030537 C-28.2835306 24.68147147 -28.29637982 23.81263757 -28.30961841 22.91747537 C-28.20599669 15.54560921 -25.64230527 10.02881867 -20.67559361 4.59031552 C-13.98822737 0.03420316 -7.93092366 -0.08838751 0 0 Z " fill="#5394FE" transform="translate(1143.6526489257813,35.24482727050781)"/>
<path d="M0 0 C39.950625 -0.061875 79.90125 -0.12375 121.0625 -0.1875 C133.68508057 -0.21481201 146.30766113 -0.24212402 159.31274414 -0.27026367 C174.70593262 -0.28381348 174.70593262 -0.28381348 181.90818787 -0.28633118 C186.94708708 -0.28913033 191.98589183 -0.30038954 197.02476501 -0.31672668 C203.44968285 -0.33728221 209.87446304 -0.34347747 216.2994107 -0.33921683 C218.65890455 -0.34010794 221.01840315 -0.34606963 223.37786877 -0.35764539 C226.56308672 -0.37254799 229.74776862 -0.36897718 232.93299866 -0.36076355 C234.32026484 -0.37387054 234.32026484 -0.37387054 235.7355566 -0.38724232 C241.30019849 -0.34862647 245.00845242 0.5503017 250 3 C253.03345299 3.4542393 253.03345299 3.4542393 256 3.5 C260.96924841 3.80247599 264.4681277 4.86232438 269 7 C270.38779217 7.31985531 271.78345363 7.6066454 273.18359375 7.8671875 C277.92256693 8.88017487 282.03274756 10.56868703 286.375 12.6875 C287.11032959 13.04199219 287.84565918 13.39648438 288.60327148 13.76171875 C297.51938737 18.13724719 305.20085112 22.80399533 312.0234375 30.08984375 C314.12572385 32.12149993 316.27282 33.57978837 318.75 35.125 C322.72461236 37.63744926 324.82286623 39.83504844 327 44 C327 44.66 327 45.32 327 46 C327.66 46 328.32 46 329 46 C344.11592467 61.90195276 353.42617321 83.51186735 357.54296875 104.91015625 C358.00517084 107.19342942 358.00517084 107.19342942 359.01953125 110.10546875 C360.61649191 115.59927702 360.42771941 121.29074747 360.56640625 126.96875 C360.61087891 128.26039062 360.61087891 128.26039062 360.65625 129.578125 C360.68428711 130.74456543 360.68428711 130.74456543 360.71289062 131.93457031 C360.88995226 134.30602459 360.88995226 134.30602459 363 137 C363.96040704 140.62171231 364.12557393 144.03268628 364.12698364 147.76867676 C364.13121338 149.4972567 364.13121338 149.4972567 364.13552856 151.26075745 C364.13249222 153.14358681 364.13249222 153.14358681 364.12939453 155.06445312 C364.13075035 156.40681506 364.1325313 157.74917662 364.13470459 159.09153748 C364.13925742 162.72990013 364.1374982 166.36823438 364.1343255 170.00659752 C364.13179081 173.81726533 364.13414254 177.62793073 364.13571167 181.43859863 C364.13753012 187.83748816 364.13513556 194.23636613 364.13037109 200.63525391 C364.1249291 208.02940881 364.12669198 215.42353614 364.1321975 222.81769037 C364.13673786 229.17026076 364.13737465 235.52282286 364.13475883 241.87539434 C364.13320115 245.66771236 364.13298838 249.46001742 364.13629532 253.25233459 C364.13918742 256.81787975 364.13717369 260.38338941 364.13140106 263.94893074 C364.12945161 265.87903418 364.13241598 267.80914064 364.13552856 269.73924255 C364.13129883 271.46782249 364.13129883 271.46782249 364.12698364 273.23132324 C364.12660662 274.23050529 364.12622959 275.22968735 364.12584114 276.25914764 C364.00156135 278.9659933 363.73146907 281.38979231 363 284 C362.34 284.33 361.68 284.66 361 285 C360.98541748 285.55872803 360.97083496 286.11745605 360.95581055 286.69311523 C360.88039202 289.27520052 360.78405119 291.85612184 360.6875 294.4375 C360.66494141 295.31599609 360.64238281 296.19449219 360.61914062 297.09960938 C360.40185368 302.45276956 359.58494766 306.94791022 357.7331543 311.97436523 C356.40282936 315.64992502 355.73518097 319.48167647 354.94140625 323.30078125 C350.10993508 342.28585676 342.28018129 360.40278391 328 374 C326.25776848 375.92576036 324.52832546 377.86317535 322.8125 379.8125 C319.42892382 383.54407057 315.97352394 386.97435053 312.08203125 390.171875 C310.04297848 391.88933003 310.04297848 391.88933003 308.5847168 393.57739258 C303.77990029 398.83228231 298.69334108 401.43349365 292.1875 404.1875 C291.25357422 404.59935547 290.31964844 405.01121094 289.35742188 405.43554688 C284.01285929 407.77587928 278.62004156 409.97829149 273.18481445 412.09887695 C270.98468545 412.97176202 270.98468545 412.97176202 268.88427734 414.08105469 C265.58769749 415.68876738 261.9664793 415.84828163 258.36328125 416.33984375 C255.64422679 416.87354898 253.498826 417.54436314 250.94113255 418.51871204 C245.75871272 420.26232473 241.00897804 420.41174799 235.57859802 420.36076355 C234.56877869 420.3633316 233.55895935 420.36589966 232.51853943 420.36854553 C229.14427509 420.37348767 225.77046335 420.35697925 222.39624023 420.34057617 C219.93211665 420.33965667 217.46799228 420.34005849 215.00386906 420.34167194 C209.08322007 420.34227964 203.16269459 420.32945786 197.24208573 420.31016796 C190.38863316 420.28851023 183.53524867 420.28618056 176.6817627 420.28381348 C158.60032014 420.26808272 140.51890799 420.22619915 122.4375 420.1875 C61.8309375 420.0946875 61.8309375 420.0946875 0 420 C0 281.4 0 142.8 0 0 Z " fill="#4F91FC" transform="translate(28,92)"/>
<path d="M0 0 C1.099664 -0.0123117 1.099664 -0.0123117 2.22154343 -0.02487212 C4.66157888 -0.04841725 7.10114931 -0.05076529 9.54129028 -0.05293274 C11.29797704 -0.06519289 13.05465582 -0.07864665 14.81132507 -0.09320068 C19.57430555 -0.12819243 24.33714746 -0.14350221 29.10024023 -0.15303779 C32.08293825 -0.15962683 35.06560001 -0.1699771 38.04828262 -0.18154335 C48.47451329 -0.22127034 58.90063377 -0.24329449 69.32693481 -0.25117493 C79.01042322 -0.25902782 88.69311548 -0.30817491 98.37635028 -0.37624043 C106.71471667 -0.43278269 115.05282028 -0.45809507 123.39137661 -0.46012241 C128.36034361 -0.46195351 133.32847178 -0.47628598 138.2972374 -0.52293968 C142.9811894 -0.56598433 147.66364606 -0.56976553 152.34771538 -0.54514503 C154.05315283 -0.54258557 155.75867895 -0.55332756 157.46391869 -0.579422 C172.30963143 -0.79268144 184.49904995 3.16415395 196.02615356 12.78959656 C205.27545238 21.96051148 214.03806597 34.35076299 214.10037231 47.74662781 C214.25444931 50.55465185 214.25444931 50.55465185 215.90164185 53.28666687 C218.26262606 58.67981605 217.77117666 64.34712879 217.69412231 70.12944031 C217.69110107 71.20359192 217.68807983 72.27774353 217.68496704 73.38444519 C217.66934254 77.3737609 217.62745882 81.36293899 217.58865356 85.35209656 C217.52677856 94.28272156 217.46490356 103.21334656 217.40115356 112.41459656 C196.28115356 112.41459656 175.16115356 112.41459656 153.40115356 112.41459656 C153.40115356 95.25459656 153.40115356 78.09459656 153.40115356 60.41459656 C105.88115356 60.41459656 58.36115356 60.41459656 9.40115356 60.41459656 C9.40115356 123.77459656 9.40115356 187.13459656 9.40115356 252.41459656 C56.92115356 252.41459656 104.44115356 252.41459656 153.40115356 252.41459656 C153.40115356 235.58459656 153.40115356 218.75459656 153.40115356 201.41459656 C154.40115356 200.41459656 154.40115356 200.41459656 156.91313171 200.29434204 C158.03009933 200.29656265 159.14706696 200.29878326 160.29788208 200.30107117 C161.5768335 200.30119202 162.85578491 200.30131287 164.17349243 200.30143738 C165.54234871 200.30647385 166.91120453 200.31164049 168.28005981 200.31694031 C169.51751953 200.31794739 170.75497925 200.31895447 172.02993774 200.31999207 C176.67451904 200.32524371 181.31908719 200.33920481 185.96365356 200.35209656 C201.52521606 200.38303406 201.52521606 200.38303406 217.40115356 200.41459656 C217.40115356 221.53459656 217.40115356 242.65459656 217.40115356 264.41459656 C216.41115356 264.74459656 215.42115356 265.07459656 214.40115356 265.41459656 C214.27998169 266.11326843 214.15880981 266.81194031 214.03396606 267.53178406 C213.86638794 268.44186218 213.69880981 269.35194031 213.52615356 270.28959656 C213.28252075 271.64697937 213.28252075 271.64697937 213.03396606 273.03178406 C212.40115356 275.41459656 212.40115356 275.41459656 210.40115356 277.41459656 C210.13193779 278.99477608 209.88572349 280.57890384 209.65115356 282.16459656 C208.129088 287.84995909 205.39078549 291.37719425 201.40115356 295.53959656 C200.65720337 296.3628241 200.65720337 296.3628241 199.89822388 297.2026825 C188.08232409 308.82678797 173.50837274 312.3630422 157.4362793 312.27403259 C153.86064279 312.20501877 150.28806633 312.0924002 146.71365356 311.97709656 C144.24693096 311.9318341 141.78012719 311.89079056 139.31326294 311.85404968 C133.34075272 311.75607922 127.37134686 311.60648786 121.40115356 311.41459656 C121.49337494 318.05344484 121.6006742 324.69192576 121.71853638 331.33036804 C121.75685577 333.58942614 121.79170338 335.84854588 121.82302856 338.10771179 C121.86861464 341.35215813 121.92661994 344.59617904 121.98709106 347.84037781 C122.00441788 349.35925346 122.00441788 349.35925346 122.02209473 350.90881348 C122.05189926 352.3199366 122.05189926 352.3199366 122.08230591 353.75956726 C122.09562958 354.58785538 122.10895325 355.41614349 122.12268066 356.26953125 C122.27854116 358.71055789 122.27854116 358.71055789 124.40115356 361.41459656 C124.96365356 363.53569031 124.96365356 363.53569031 125.40115356 365.85209656 C126.00810403 369.05484411 126.94179966 371.51333123 128.40115356 374.41459656 C128.62802856 375.65209656 128.85490356 376.88959656 129.08865356 378.16459656 C130.34397522 383.46048481 133.70651747 386.59281712 137.40115356 390.41459656 C141.04427537 394.38102571 144.37757294 398.26338184 147.21365356 402.85209656 C151.17969127 408.98722727 156.67757553 414.67626835 163.34646606 417.78959656 C167.7069725 420.10925215 170.51437438 423.51188844 173.72537231 427.20756531 C176.5488548 430.23964281 178.33763192 431.69998878 182.54177856 432.06694031 C186.7060241 432.44205959 187.57679709 432.86041346 190.27615356 435.85209656 C194.08088621 439.55197437 196.94982148 440.12862611 202.09646606 440.82475281 C205.38172525 441.66555643 206.62860861 443.49915312 208.75271606 446.01615906 C211.98041809 448.75435177 216.31188327 448.94586597 220.40115356 449.41459656 C220.73115356 450.40459656 221.06115356 451.39459656 221.40115356 452.41459656 C222.30478638 452.39139343 223.20841919 452.36819031 224.13943481 452.34428406 C225.318927 452.32623718 226.49841919 452.30819031 227.71365356 452.28959656 C228.88541138 452.26639343 230.05716919 452.24319031 231.26443481 452.21928406 C234.40115356 452.41459656 234.40115356 452.41459656 237.40115356 454.41459656 C237.40115356 455.07459656 237.40115356 455.73459656 237.40115356 456.41459656 C238.13720825 456.39139343 238.87326294 456.36819031 239.63162231 456.34428406 C240.60744263 456.32623718 241.58326294 456.30819031 242.58865356 456.28959656 C243.55158325 456.26639343 244.51451294 456.24319031 245.50662231 456.21928406 C248.77870918 456.44007264 251.9979665 457.01140949 254.40115356 459.41459656 C257.65060693 459.61910761 260.89270277 459.76037315 264.14724731 459.84428406 C265.18945435 459.89069031 265.18945435 459.89069031 266.25271606 459.93803406 C266.8800061 459.95785339 267.50729614 459.97767273 268.15359497 459.99809265 C270.40115356 460.41459656 270.40115356 460.41459656 273.67532349 461.91899109 C277.46997058 463.61238901 281.04772797 463.83931599 285.16287231 463.82084656 C286.23248955 463.83710083 286.23248955 463.83710083 287.32371521 463.85368347 C290.34401381 463.89919389 293.36421609 463.91105332 296.38479614 463.92582703 C298.60279715 463.94152885 300.82008584 463.97450811 303.03787231 464.00834656 C305.01340088 464.01898132 305.01340088 464.01898132 307.02883911 464.02983093 C310.40115356 464.41459656 310.40115356 464.41459656 312.17442322 465.91537476 C315.30528328 468.02333258 317.64806203 467.78878864 321.40115356 467.78691101 C322.09756958 467.79056168 322.7939856 467.79421234 323.51150513 467.79797363 C325.80830444 467.80606452 328.10439497 467.79248185 330.40115356 467.77787781 C332.00011189 467.77735902 333.59907087 467.77787744 335.19802856 467.77938843 C338.54708392 467.77929877 341.89589823 467.76888269 345.24490356 467.7507782 C349.53569655 467.7280912 353.82613742 467.72754761 358.11697388 467.73429585 C361.41811243 467.73763887 364.71917084 467.73099945 368.02029419 467.72116661 C369.60232117 467.71732008 371.18435708 467.71616413 372.76638794 467.71775246 C374.97814894 467.71812372 377.18946019 467.70548617 379.40115356 467.68925476 C380.65927856 467.68464737 381.91740356 467.68003998 383.21365356 467.67529297 C386.26834745 467.42545839 387.79876161 466.90169062 390.40115356 465.41459656 C393.45046997 465.11161804 393.45046997 465.11161804 397.00271606 465.03569031 C398.29822388 465.00153015 399.59373169 464.96737 400.92849731 464.93217468 C402.29437142 464.90490945 403.66025715 464.87822026 405.02615356 464.85209656 C420.96399054 464.75787807 420.96399054 464.75787807 436.40115356 461.41459656 C440.19618163 460.67771272 444.01635029 460.11560415 447.83865356 459.53959656 C450.09011249 459.18773407 452.34141144 458.83484664 454.59255981 458.48100281 C455.72967407 458.30327332 456.86678833 458.12554382 458.0383606 457.94242859 C471.92679536 455.76246663 485.54072055 453.32528138 499.09646606 449.57084656 C502.98181602 448.5016424 506.88721365 447.64757243 510.83865356 446.85209656 C516.13143405 445.75915581 521.14644136 444.29041056 526.24319458 442.50151062 C533.78366665 439.90621246 541.42443182 437.64850719 549.12771606 435.59037781 C562.67025314 431.95471926 575.04560034 427.71384265 587.52371216 421.33647156 C591.66804836 419.30148931 596.03917528 417.89924579 600.40115356 416.41459656 C607.0982288 413.96238466 613.64419663 411.34900972 620.08865356 408.28959656 C623.93895368 406.46186373 627.59077057 404.98629397 631.71365356 403.91459656 C635.07634193 402.98677345 637.32137741 401.92509548 640.02615356 399.72709656 C645.45063278 395.32916221 651.7846033 392.57904266 658.03445435 389.55912781 C662.39673152 387.44953885 666.74420706 385.31061017 671.08865356 383.16459656 C671.93782349 382.75241882 672.78699341 382.34024109 673.66189575 381.91557312 C679.11437282 379.22318056 683.51480851 376.45598367 687.68240356 371.94584656 C691.67780369 368.22599126 696.29277734 366.18950238 701.16287231 363.80912781 C705.69230511 361.52436967 708.94974829 359.22705309 712.40115356 355.41459656 C718.37950778 349.78862501 724.79693496 345.22369567 731.79568481 340.95365906 C735.47358088 338.64811227 738.43863402 336.74767613 740.77615356 333.03959656 C742.81401022 329.81183494 745.10296291 328.09533079 748.26052856 325.97709656 C754.6990475 321.39354715 760.12074477 316.08221909 765.63748169 310.45951843 C767.28781788 308.7777098 768.94887769 307.10710039 770.61209106 305.43803406 C771.68563786 304.35532516 772.75857673 303.27201306 773.83084106 302.18803406 C774.31737152 301.69725372 774.80390198 301.20647339 775.30517578 300.70082092 C780.02454515 295.88386658 784.01668422 291.21869637 787.23709106 285.26225281 C788.5949692 283.10696301 790.17738385 281.35123767 791.90115356 279.47709656 C794.65043378 276.41975746 796.53326359 273.60173684 798.24490356 269.88334656 C799.83750393 266.48292956 801.58115044 263.16971672 803.33865356 259.85209656 C803.68815063 259.1905658 804.03764771 258.52903503 804.3977356 257.84745789 C806.15391758 254.57158212 807.93459992 251.48855385 810.21365356 248.53959656 C813.61037714 243.68713431 814.84076876 238.44599147 816.40115356 232.78959656 C817.40115356 229.41459656 817.40115356 229.41459656 818.96365356 225.91459656 C821.66467072 219.33820697 821.57054695 212.57519322 821.60427856 205.57084656 C821.60997864 204.64292297 821.61567871 203.71499939 821.62155151 202.75895691 C821.6309555 200.80580267 821.63751708 198.85263289 821.64138794 196.89945984 C821.6511236 193.9237555 821.68220273 190.94873385 821.71365356 187.97319031 C821.72018201 186.06824646 821.7254331 184.16329771 821.72927856 182.25834656 C821.74162537 181.37586243 821.75397217 180.4933783 821.76669312 179.58415222 C821.74690731 174.0608588 820.87738623 170.35445217 818.40115356 165.41459656 C818.11240356 164.48647156 817.82365356 163.55834656 817.52615356 162.60209656 C813.58811467 151.4443197 806.87630112 141.49329234 799.67459106 132.19584656 C798.40115356 130.41459656 798.40115356 130.41459656 796.77615356 127.10209656 C794.70594862 123.05578688 792.17528166 121.82442908 788.21365356 119.72709656 C784.10177931 117.45847628 780.8911296 114.35437823 777.51443481 111.12162781 C775.39341685 109.40834712 774.06292824 108.81716745 771.40115356 108.41459656 C771.40115356 107.75459656 771.40115356 107.09459656 771.40115356 106.41459656 C770.83783325 106.14260437 770.27451294 105.87061218 769.69412231 105.59037781 C767.29124054 104.35823571 765.00220938 103.03575383 762.71365356 101.60209656 C761.92603638 101.12127625 761.13841919 100.64045593 760.32693481 100.14506531 C757.94576968 98.00539766 757.71445513 96.54230206 757.40115356 93.41459656 C763.02615356 93.16459656 763.02615356 93.16459656 766.40115356 95.41459656 C768.18115434 95.77059671 769.9763652 96.05316323 771.77615356 96.28959656 C779.49596982 97.47436738 787.83104669 99.03452531 794.40115356 103.41459656 C795.65927856 103.62084656 796.91740356 103.82709656 798.21365356 104.03959656 C809.90540331 106.49505289 820.7271079 115.48257233 830.47927856 122.1191864 C832.44109476 123.4415183 834.41801449 124.73777639 836.40115356 126.02787781 C847.69377099 133.391481 857.34624467 140.38182691 863.65115356 152.60209656 C866.09582333 157.31950328 868.73272058 161.2153632 872.21365356 165.22709656 C876.06476613 169.70377055 877.40858962 172.65772566 878.40115356 178.41459656 C878.88713013 179.18029968 879.37310669 179.94600281 879.87380981 180.73490906 C881.66010841 183.86892654 882.03426824 186.34611266 882.46365356 189.91459656 C882.99661177 194.44736364 882.99661177 194.44736364 884.41311646 198.74565125 C886.24532414 203.69492094 885.77033862 208.94277586 885.77615356 214.16459656 C885.80064575 215.30670593 885.82513794 216.44881531 885.85037231 217.62553406 C885.87252775 224.05060951 885.28962023 228.78661738 882.34109497 234.51469421 C881.0900097 237.04351125 880.72039132 239.43775668 880.40115356 242.22709656 C878.58643286 254.26474392 873.67386171 264.12090274 867.92459106 274.70365906 C866.0203157 278.21453324 864.25666202 281.76346789 862.55813599 285.37724304 C860.00014409 290.7912525 857.52948148 294.81254501 853.03005981 298.75834656 C850.5343498 301.29595098 849.1512011 304.30267794 847.63943481 307.49662781 C846.15417447 309.79714147 844.80887804 310.2131088 842.40115356 311.41459656 C841.33131285 313.30926869 841.33131285 313.30926869 840.40115356 315.41459656 C839.2693513 316.75727708 838.10025422 318.06916048 836.90115356 319.35209656 C834.23699193 322.30679434 832.84230376 324.70878178 831.40115356 328.41459656 C829.05149598 330.63724562 827.15632992 332.15735267 824.08474731 333.20365906 C820.6821693 334.73902905 818.35804257 336.9811955 815.77615356 339.60209656 C814.83513794 340.52377625 813.89412231 341.44545593 812.92459106 342.39506531 C810.14540816 345.72062008 808.9735492 348.41869205 807.40115356 352.41459656 C805.25893923 354.48294143 803.29228425 355.46540224 800.58865356 356.72709656 C797.27259066 358.48265927 794.85157911 360.48497863 792.11209106 363.01225281 C790.40115356 364.41459656 790.40115356 364.41459656 788.27224731 365.44975281 C786.1689025 366.31477623 786.1689025 366.31477623 785.08865356 368.78959656 C782.31660871 373.10166633 778.2290676 374.80529188 773.40115356 376.41459656 C773.40115356 377.07459656 773.40115356 377.73459656 773.40115356 378.41459656 C772.57615356 378.78584656 771.75115356 379.15709656 770.90115356 379.53959656 C768.10602153 381.03698872 765.88410433 382.49508462 763.40115356 384.41459656 C759.53624812 387.39440915 755.56489285 389.47892551 751.08865356 391.41459656 C749.05112258 392.37313861 749.05112258 392.37313861 748.40115356 395.41459656 C747.74115356 395.41459656 747.08115356 395.41459656 746.40115356 395.41459656 C746.07115356 396.40459656 745.74115356 397.39459656 745.40115356 398.41459656 C743.62380981 399.51225281 743.62380981 399.51225281 741.46365356 400.47709656 C738.89228257 401.63911358 737.42431378 402.39143634 735.40115356 404.41459656 C734.55552856 404.68272156 733.70990356 404.95084656 732.83865356 405.22709656 C727.51998888 407.06445345 722.48797482 409.62430407 718.20193481 413.30131531 C714.45021039 416.13211435 710.41843178 417.91879915 706.15115356 419.85209656 C700.44584373 422.45906828 694.8835598 425.17780699 689.4236145 428.26982117 C686.8586971 429.72164368 684.25404489 431.09479185 681.65115356 432.47709656 C678.73972253 434.04975321 676.32471734 435.47829341 673.77615356 437.60209656 C670.90734556 439.79145003 668.20610429 440.5907998 664.78396606 441.64115906 C659.91750313 443.22076506 655.33322704 445.51016216 650.70584106 447.67631531 C644.17850515 450.70361734 637.71337662 453.18622717 630.79568481 455.15678406 C626.186774 456.47750592 622.48392029 457.86286736 618.40115356 460.41459656 C613.17982179 462.68355225 607.83282953 464.66177527 602.48318481 466.60600281 C600.66773504 467.31106491 598.88249671 468.09295395 597.10427856 468.88725281 C593.59110234 470.40221977 590.05764317 471.37502458 586.33865356 472.28959656 C577.63020917 474.50933182 569.17473339 477.33118939 560.92849731 480.93022156 C539.31141906 490.02710942 514.30684043 494.2806785 491.42190552 499.19779968 C485.91954072 500.38421586 480.46004096 501.63833992 475.02224731 503.09428406 C452.94912718 508.87276517 430.48964524 511.36444316 407.86599731 514.03178406 C406.27200607 514.22036232 406.27200607 514.22036232 404.64581299 514.41275024 C393.82547271 515.65651337 383.05970983 516.58003607 372.16287231 516.51225281 C371.27122879 516.51083786 370.37958527 516.50942291 369.46092224 516.50796509 C366.67012882 516.50245911 363.87942188 516.48992601 361.08865356 516.47709656 C359.17263911 516.47206935 357.25662338 516.46750861 355.34060669 516.46342468 C350.69409004 516.4525208 346.04763635 516.43532412 341.40115356 516.41459656 C341.40115356 517.07459656 341.40115356 517.73459656 341.40115356 518.41459656 C336.92234346 520.65400161 330.78255914 519.60044073 325.79812622 519.59989929 C323.54191098 519.60208132 321.28618823 519.62022823 319.03005981 519.63920593 C317.59386357 519.64214087 316.157665 519.64412499 314.72146606 519.64506531 C313.41451782 519.64917419 312.10756958 519.65328308 310.76101685 519.65751648 C307.49518837 519.42139532 306.21366092 518.84296331 303.40115356 517.41459656 C300.04566833 517.06290427 300.04566833 517.06290427 296.28396606 517.03569031 C295.5903598 517.01869583 294.89675354 517.00170135 294.18212891 516.98419189 C291.96356333 516.9312402 289.74500649 516.8909772 287.52615356 516.85209656 C258.68392348 516.26354525 258.68392348 516.26354525 250.40115356 513.41459656 C248.06864844 513.02273256 248.06864844 513.02273256 245.78396606 512.88725281 C244.51504517 512.78513489 244.51504517 512.78513489 243.2204895 512.68095398 C242.33135864 512.61368103 241.44222778 512.54640808 240.52615356 512.47709656 C228.57284219 511.43889329 217.09255439 509.62180563 205.57693481 506.17240906 C204.84789444 505.95567032 204.11885406 505.73893158 203.36772156 505.515625 C195.61870196 503.20008147 187.89285388 500.81295795 180.18948364 498.34989929 C178.62218001 497.85133755 177.05315081 497.35816828 175.48245239 496.8704071 C161.29324684 492.46066646 147.74418822 486.97605773 135.52615356 478.35209656 C134.91231812 477.93000916 134.29848267 477.50792175 133.66604614 477.07304382 C132.45615196 476.23932856 131.24902694 475.40157508 130.04519653 474.55912781 C128.57341814 473.53452176 127.08404267 472.53530138 125.59255981 471.53959656 C116.84036268 465.64107992 109.370182 458.45137816 101.90115356 451.03959656 C101.38440063 450.52759705 100.86764771 450.01559753 100.3352356 449.48808289 C96.92982081 446.06734884 94.64788943 443.69313697 93.71365356 438.85209656 C92.8572834 435.07439915 91.2796426 432.62920377 88.96365356 429.53959656 C85.91849129 425.43333651 84.37791663 421.95260112 83.20510864 417.00614929 C82.39872779 414.40677707 81.34229381 412.71948156 79.86209106 410.45756531 C75.93959424 402.75087853 76.58337238 394.13045299 76.63943481 385.68534851 C76.65106345 382.74984379 76.59889546 379.82017282 76.54177856 376.88529968 C76.46655508 366.20848133 77.46271267 358.05333094 82.63699341 348.6570282 C85.10810117 344.11526481 86.58018715 339.40324126 88.08865356 334.47709656 C89.85300293 328.78632941 91.68799538 323.44561475 94.54495239 318.20146179 C95.45857996 316.29474946 95.9159125 314.46681751 96.40115356 312.41459656 C95.08729675 312.42792023 93.77343994 312.4412439 92.41976929 312.45497131 C80.00319238 312.57690447 67.58673787 312.66669005 55.16969681 312.72546959 C48.7867959 312.75670542 42.40438055 312.79903784 36.02175903 312.86723328 C29.8555096 312.93270026 23.68972552 312.9683608 17.52315521 312.98386002 C15.17732168 312.99489723 12.83151197 313.01645009 10.48587799 313.0489769 C-12.9320382 313.36062814 -12.9320382 313.36062814 -22.59884644 306.41459656 C-23.51365784 305.80860626 -24.42846924 305.20261597 -25.3710022 304.57826233 C-27.03520853 303.46088656 -28.67408864 302.30492243 -30.28634644 301.11381531 C-32.53791884 299.41254939 -32.53791884 299.41254939 -34.78634644 298.05912781 C-42.21878116 293.25901371 -45.76852456 285.41040138 -47.84884644 276.97709656 C-48.09634644 275.80147156 -48.34384644 274.62584656 -48.59884644 273.41459656 C-48.93893832 272.70478638 -49.27903021 271.9949762 -49.62942791 271.26365662 C-50.99797081 267.24159514 -50.87806124 263.48782873 -50.85954285 259.26713562 C-50.86336839 258.34350849 -50.86719394 257.41988136 -50.87113541 256.46826553 C-50.88145734 253.37219305 -50.87747479 250.27630629 -50.87350464 247.18022156 C-50.87785151 244.96102222 -50.88303457 242.74182438 -50.88899231 240.52262878 C-50.90239503 234.49383891 -50.90295964 228.46511168 -50.90042901 222.43630981 C-50.89936034 217.40622069 -50.90423992 212.37614429 -50.90903443 207.34605789 C-50.92076845 194.80365013 -50.91990197 182.26127283 -50.91347762 169.71886492 C-50.90830683 158.82642785 -50.91956846 147.93408017 -50.93857584 137.04166079 C-50.95794615 125.85548115 -50.9659202 114.66933409 -50.96245259 103.48313522 C-50.96063712 97.20362478 -50.96330241 90.92419623 -50.97716713 84.6446991 C-50.98971311 78.74153674 -50.98783196 72.83855379 -50.97475624 66.93539429 C-50.972384 64.76698751 -50.9751482 62.59856823 -50.98337936 60.43017578 C-50.9937935 57.47392629 -50.98578901 54.51828474 -50.97306824 51.5620575 C-50.98412966 50.26998823 -50.98412966 50.26998823 -50.99541456 48.95181656 C-50.95238794 44.21053379 -50.50008804 41.35625767 -47.59884644 37.41459656 C-47.18282749 36.03043474 -46.80635432 34.63365768 -46.47384644 33.22709656 C-44.52348119 27.00252664 -40.0265234 23.0152911 -35.59884644 18.41459656 C-34.73151132 17.34177709 -33.8745784 16.26030591 -33.03634644 15.16459656 C-28.43907412 9.97793035 -23.3691728 6.28163808 -16.75119019 4.15287781 C-14.38781895 3.38941775 -14.38781895 3.38941775 -11.43925285 1.89436626 C-7.58424722 0.24146475 -4.21249033 0.0245907 0 0 Z " fill="#4F92FD" transform="translate(894.5988464355469,199.5854034423828)"/>
<path d="M0 0 C0.75630964 -0.00508782 1.51261929 -0.01017564 2.29184741 -0.01541764 C4.83410473 -0.03115242 7.3763336 -0.03967011 9.91862488 -0.04811096 C11.73869508 -0.05764909 13.55876345 -0.06754023 15.37882996 -0.07775879 C21.36627547 -0.10916553 27.35373493 -0.12942128 33.3412323 -0.14796448 C34.87066802 -0.15291046 34.87066802 -0.15291046 36.43100142 -0.15795636 C46.05416883 -0.18875179 55.6773394 -0.21545165 65.30054188 -0.23237514 C77.59309758 -0.25424794 89.88521459 -0.2961377 102.17759496 -0.36581272 C110.82833091 -0.4131717 119.47894905 -0.43732504 128.12981051 -0.44457203 C133.2914318 -0.44951267 138.4525589 -0.46444073 143.61403847 -0.50431633 C148.47907911 -0.54140374 153.34334791 -0.54952039 158.20850372 -0.5363102 C159.98453306 -0.53636379 161.76059851 -0.54651365 163.53649712 -0.56806183 C180.31232969 -0.76056242 192.96798826 3.64004675 205.74357605 15.04344177 C214.79020137 24.26538929 219.94114698 36.48773121 222.06388855 49.07469177 C222.53390634 52.13980219 222.53390634 52.13980219 223.65313148 54.82646847 C224.82182583 58.79827131 224.91805537 62.49355548 224.90162659 66.59313965 C224.9061577 67.42778305 224.91068881 68.26242645 224.91535723 69.12236208 C224.92798944 71.91129758 224.92638165 74.70003751 224.92472839 77.48899841 C224.9307142 79.49160004 224.93751986 81.49419936 224.94508362 83.49679565 C224.96274106 88.93049944 224.96743877 94.36414022 224.96871519 99.79786992 C224.9706151 104.33343052 224.97797332 108.86897647 224.98505938 113.40453142 C225.00133838 124.10196548 225.00622861 134.79936589 225.00480652 145.49681091 C225.00360377 156.53728975 225.0247333 167.57757351 225.05629385 178.61800295 C225.08242344 188.09583999 225.09317528 197.57361316 225.0918957 207.05148596 C225.09138528 212.7128612 225.09711307 218.3740629 225.1182518 224.0354023 C225.13757939 229.35669654 225.13779622 234.67765062 225.12321854 239.99895668 C225.12112284 241.95289861 225.12587642 243.90686155 225.13793945 245.86076736 C225.15332977 248.52594857 225.1441255 251.18994759 225.12867737 253.85510254 C225.13896449 254.63019907 225.14925162 255.40529559 225.15985048 256.20387989 C225.09580727 261.19545974 224.03975843 263.56187819 220.63420105 267.16062927 C220.02967537 269.28354234 220.02967537 269.28354234 220.00920105 271.34812927 C219.63420105 275.16062927 219.63420105 275.16062927 217.63420105 277.16062927 C217.58822334 278.68076745 217.59613265 280.20277246 217.63420105 281.72312927 C217.24881437 286.66892497 215.68475934 288.64038179 212.00920105 291.91062927 C210.23098597 293.3441442 208.43794574 294.75937306 206.63420105 296.16062927 C205.55661913 297.09199978 204.48293367 298.02788998 203.41235352 298.96730042 C202.1567734 300.03622784 200.8973643 301.10067369 199.63420105 302.16062927 C199.08497671 302.62386471 198.53575237 303.08710014 197.96988487 303.56437302 C181.91933222 316.19570644 160.5167218 313.59341712 141.27195191 313.43802118 C136.103838 313.40490668 130.9358456 313.42292009 125.76766968 313.43305969 C117.09725686 313.44206171 108.42771261 313.41060715 99.75749207 313.35447693 C89.77253982 313.29032852 79.78915008 313.29044004 69.80408651 313.32490647 C60.14340167 313.35676698 50.48328276 313.34309089 40.8226223 313.30903244 C36.73558423 313.29538577 32.64900631 313.29725735 28.56197548 313.31212234 C23.74057384 313.32758447 18.92092497 313.30276505 14.09982109 313.24842453 C12.34405337 313.23479736 10.58811964 313.23430798 8.83235931 313.24885559 C-7.09848597 313.36552392 -20.15646906 308.38643849 -32.1822052 297.64500427 C-37.3025783 292.54648198 -42.07238459 287.67226588 -45.36579895 281.16062927 C-45.98454895 279.95406677 -45.98454895 279.95406677 -46.61579895 278.72312927 C-47.5038162 275.68907032 -47.74684323 272.78726306 -47.9243927 269.63719177 C-48.28465638 266.97069046 -48.28465638 266.97069046 -49.86957741 264.04597855 C-51.69909416 259.83718912 -51.78573934 256.05761594 -51.74674988 251.51847839 C-51.75142985 250.67340233 -51.75610982 249.82832627 -51.76093161 248.95764184 C-51.7728524 246.13940024 -51.76343597 243.32164752 -51.75398254 240.50340271 C-51.75804941 238.47770403 -51.76339194 236.45200757 -51.76991272 234.42631531 C-51.78357482 228.93491253 -51.7782931 223.44367906 -51.76877546 217.95227337 C-51.76117735 212.20679965 -51.76822452 206.46134038 -51.77293396 200.71586609 C-51.77838929 191.07210182 -51.77120385 181.42840651 -51.75691223 171.78465271 C-51.74056767 160.62655491 -51.74588826 149.46862141 -51.76239145 138.31052756 C-51.77599055 128.73333443 -51.77793426 119.15619084 -51.77007544 109.57899117 C-51.76539263 103.85737427 -51.76479114 98.13583469 -51.77468491 92.41422272 C-51.78333 87.03960188 -51.77737774 81.66519378 -51.76000214 76.29059601 C-51.75602492 74.31485854 -51.75719232 72.33910326 -51.76379013 70.3633728 C-51.77194658 67.67361942 -51.7617561 64.98455468 -51.74674988 62.29484558 C-51.75344204 61.50682359 -51.76013421 60.71880161 -51.76702917 59.90690017 C-51.70892294 54.56485999 -51.70892294 54.56485999 -49.86078835 52.38759232 C-49.36744184 51.98269451 -48.87409534 51.57779671 -48.36579895 51.16062927 C-48.1426211 48.36655858 -48.05211155 45.7030981 -48.05329895 42.91062927 C-47.79170244 33.54879286 -47.79170244 33.54879286 -44.61579895 30.09812927 C-44.07052551 29.60957458 -43.52525208 29.1210199 -42.9634552 28.61766052 C-41.1737656 26.98549861 -40.22905752 25.39543995 -39.05329895 23.28562927 C-31.02988455 10.31319291 -15.43331062 0.02567167 0 0 Z " fill="#4F91FC" transform="translate(527.3657989501953,199.83937072753906)"/>
<path d="M0 0 C50.16 0 100.32 0 152 0 C152 0.66 152 1.32 152 2 C152.65371582 1.99363525 153.30743164 1.98727051 153.98095703 1.98071289 C176.75738894 1.9146304 176.75738894 1.9146304 186.8046875 8.2109375 C189.69637978 9.83000237 191.49578511 10.36091657 194.6484375 11.04296875 C201.29024181 12.92354713 205.57981057 17.56366661 210.25146484 22.39379883 C211.73939042 23.92657065 213.25867126 25.4217526 214.78515625 26.91601562 C223.18229202 35.31418295 228.57187923 44.30087267 231 56 C231.33 56.33 231.66 56.66 232 57 C232.20377684 60.79628713 232.34693644 64.58608073 232.4296875 68.38671875 C232.47609375 69.58361328 232.47609375 69.58361328 232.5234375 70.8046875 C232.54325684 71.53671387 232.56307617 72.26874023 232.58349609 73.02294922 C232.80915454 75.10344161 232.80915454 75.10344161 234.50264263 76.25823212 C236.65638427 78.76352451 236.37473837 80.57298542 236.3742218 83.84533691 C236.38123611 85.06517776 236.38825043 86.28501862 236.39547729 87.54182434 C236.38804939 88.89572308 236.38031824 90.24962017 236.37231445 91.60351562 C236.37474211 93.02764654 236.37846117 94.45177576 236.38337708 95.87590027 C236.39279343 99.74572612 236.38335452 103.61529937 236.37004495 107.48510551 C236.35874064 111.5316154 236.36283716 115.57811266 236.36479187 119.62463379 C236.36567517 126.42053359 236.35458697 133.21633371 236.33618164 140.01220703 C236.31501344 147.8733183 236.31150392 155.7342835 236.3177436 163.5954175 C236.32343503 171.15222893 236.31779421 178.70898884 236.30657005 186.26579285 C236.30192113 189.48423717 236.30105148 192.70265002 236.3031559 195.9210968 C236.30503728 199.70990813 236.29694659 203.49857044 236.2810955 207.28734779 C236.27684702 208.67933346 236.27600589 210.07133422 236.27878571 211.46332359 C236.28199994 213.36044362 236.27171467 215.25757234 236.26069641 217.15466309 C236.25761711 218.74859013 236.25761711 218.74859013 236.25447559 220.37471771 C236 223 236 223 234 226 C233.54861089 227.92447891 233.54861089 227.92447891 233.3671875 230.01171875 C233.28339844 230.76904297 233.19960938 231.52636719 233.11328125 232.30664062 C233.03464844 233.09232422 232.95601562 233.87800781 232.875 234.6875 C232.74544922 235.88342773 232.74544922 235.88342773 232.61328125 237.10351562 C232.40151528 239.06823326 232.19978527 241.03402796 232 243 C231.34 243 230.68 243 230 243 C229.92523438 243.66644531 229.85046875 244.33289063 229.7734375 245.01953125 C227.99501039 257.4859566 221.53110911 266.92992191 213 276 C209.875 278.25 209.875 278.25 207 280 C205.92364304 281.17495455 204.86231697 282.36377283 203.8125 283.5625 C200.19807104 287.31197356 196.84237243 288.11533976 191.84375 289.18359375 C188.78711057 290.06111798 186.85917015 291.33331335 184.25 293.125 C177.63073759 297.05217172 170.54923547 296.68961416 163.05957031 296.68603516 C162.09374023 296.69038574 161.12791016 296.69473633 160.1328125 296.69921875 C159.26543457 296.68721436 158.39805664 296.67520996 157.50439453 296.6628418 C154.39800929 296.91297639 154.39800929 296.91297639 150 300 C100.5 300 51 300 0 300 C0 201 0 102 0 0 Z " fill="#000000" transform="translate(92,152)"/>
<path d="M0 0 C8.69273956 -0.27918226 17.3839165 -0.49181077 26.0801754 -0.62174606 C30.11936128 -0.68414236 34.15546156 -0.76860687 38.19287109 -0.90527344 C42.09650062 -1.03657043 45.99718275 -1.10758507 49.9028511 -1.13852692 C51.38549841 -1.16054497 52.86800048 -1.20355027 54.34937668 -1.26876068 C65.61344013 -1.74446128 65.61344013 -1.74446128 69.60100937 1.17026138 C72.95457841 4.39193828 75.47773344 8.10066881 78 12 C78.99908127 13.34766271 80.00427605 14.69089552 81.0234375 16.0234375 C81.8123555 17.13705487 82.59650371 18.25407235 83.375 19.375 C83.77332031 19.93832031 84.17164063 20.50164062 84.58203125 21.08203125 C86.45685361 23.7436643 88.27534134 26.42725381 90.0390625 29.1640625 C91.85079751 31.7842211 93.75426447 33.76312339 96 36 C97.26823308 37.8276678 98.49479245 39.68467322 99.6875 41.5625 C103.1220741 46.82028726 106.85630372 51.64752272 110.921875 56.4296875 C113.14500053 59.17934276 115.0496772 62.05183763 117 65 C118.48265328 66.9714991 119.98378651 68.92919269 121.5 70.875 C126.02898585 76.71151732 130.47371255 82.60759532 134.88867188 88.53076172 C136.97569641 91.32543121 139.07093349 94.08714337 141.2734375 96.79296875 C143.08323969 99.10640368 144.05144238 101.23337362 145 104 C149.08804147 102.47950351 150.59655339 100.02755056 152.9375 96.4375 C156.54278314 91.03378082 160.3431167 85.82946854 164.3125 80.6875 C165.43234231 79.23441403 166.55213371 77.78128882 167.671875 76.328125 C168.22681641 75.60818359 168.78175781 74.88824219 169.35351562 74.14648438 C173.45033204 68.80555763 177.46420845 63.40168562 181.49414062 58.01025391 C183.04904615 55.93452562 184.60972416 53.86324883 186.171875 51.79296875 C195.32118151 40.36109858 195.32118151 40.36109858 203 28 C203.66 28 204.32 28 205 28 C205.37125 27.2265625 205.37125 27.2265625 205.75 26.4375 C207.39581616 23.22815849 209.1976096 20.12414336 211 17 C211.66 17 212.32 17 213 17 C213.23589844 16.46761719 213.47179688 15.93523437 213.71484375 15.38671875 C215.37458757 12.30433736 217.4440307 9.58692503 219.5625 6.8125 C219.97435547 6.26658203 220.38621094 5.72066406 220.81054688 5.15820312 C223.83047672 1.16952328 223.83047672 1.16952328 225 0 C227.14743549 -0.09425595 229.29801026 -0.11742648 231.44750977 -0.11352539 C232.12065216 -0.11367142 232.79379456 -0.11381744 233.48733521 -0.1139679 C235.72205784 -0.11326878 237.9566981 -0.10547652 240.19140625 -0.09765625 C241.73697362 -0.09579206 243.28254157 -0.09436816 244.82810974 -0.09336853 C248.90357077 -0.0895434 252.97899637 -0.07971317 257.05444336 -0.06866455 C261.21011882 -0.05845032 265.36579999 -0.05387089 269.52148438 -0.04882812 C277.68100587 -0.03809089 285.84049853 -0.02101454 294 0 C293.27434842 3.24978409 292.50542256 4.8362023 290.1875 7.25 C284.28175755 13.75960159 279.21545009 20.93704027 274 28 C272.96228768 29.39847319 271.92452802 30.79691126 270.88671875 32.1953125 C269.90318603 33.52570187 268.92009544 34.85641823 267.9375 36.1875 C267.4847168 36.79859619 267.03193359 37.40969238 266.56542969 38.03930664 C264.67655492 40.61091154 262.90896178 43.15820796 261.31640625 45.92578125 C260.88199219 46.61027344 260.44757813 47.29476562 260 48 C259.34 48 258.68 48 258 48 C257.7525 48.53109375 257.505 49.0621875 257.25 49.609375 C255.67664388 52.61841857 253.86437713 55.41230833 252 58.25 C251.29875 59.32765625 250.5975 60.4053125 249.875 61.515625 C249.25625 62.33546875 248.6375 63.1553125 248 64 C247.34 64 246.68 64 246 64 C245.76410156 64.5259375 245.52820312 65.051875 245.28515625 65.59375 C243.5973972 68.7538095 241.53351813 71.60387184 239.4375 74.5 C238.99567383 75.11439941 238.55384766 75.72879883 238.09863281 76.36181641 C233.81236154 82.3017134 229.41820367 88.15767631 225 94 C224.02027698 95.31208476 223.04105162 96.62454138 222.0625 97.9375 C219.8776427 100.8546779 217.65712175 103.74300885 215.42797852 106.62646484 C211.26332641 112.0154638 207.18820805 117.45252461 203.203125 122.9765625 C199.49913456 128.05969832 195.70969748 133.07875196 191.9296875 138.10546875 C191.4562793 138.74274902 190.98287109 139.3800293 190.49511719 140.03662109 C189.44777482 141.4119848 188.36705688 142.76227129 187.26269531 144.09228516 C183.98757889 147.92151451 183.98757889 147.92151451 182.86328125 152.6484375 C184.31761082 155.65705057 186.08298435 158.02267885 188.1875 160.625 C189.09845153 161.77047059 190.0071708 162.91771874 190.9140625 164.06640625 C191.4080957 164.69047363 191.90212891 165.31454102 192.41113281 165.95751953 C195.37431111 169.76666976 198.211168 173.66935733 201.0625 177.5625 C202.26925299 179.20593353 203.47627861 180.8491669 204.68359375 182.4921875 C205.53993408 183.65766113 205.53993408 183.65766113 206.41357422 184.84667969 C210.39327675 190.24849198 214.43635139 195.60297504 218.47802734 200.95849609 C220.09088234 203.09630603 221.70170385 205.23563852 223.3125 207.375 C223.81668457 208.04168701 224.32086914 208.70837402 224.84033203 209.39526367 C226.96263322 212.2154195 229.02201779 215.03322289 230.97265625 217.9765625 C233.52632816 221.7849287 236.315973 225.37800754 239.125 229 C243.18380825 234.26646261 247.17241777 239.56305739 251 245 C254.67761128 250.2157128 258.48694265 255.31428118 262.375 260.375 C262.91600342 261.08027832 263.45700684 261.78555664 264.0144043 262.51220703 C266.25608603 265.43261186 268.49939398 268.3517131 270.74951172 271.265625 C272.44396961 273.4636358 274.12902948 275.66856832 275.8125 277.875 C276.33440918 278.54708496 276.85631836 279.21916992 277.39404297 279.91162109 C281 284.65875027 281 284.65875027 281 288 C281.66 288 282.32 288 283 288 C284.26513672 289.3894043 284.26513672 289.3894043 285.6796875 291.32421875 C286.19660156 292.02353516 286.71351563 292.72285156 287.24609375 293.44335938 C287.78363281 294.18392578 288.32117187 294.92449219 288.875 295.6875 C289.93420668 297.12941274 290.99408816 298.57083007 292.0546875 300.01171875 C292.55709961 300.70056152 293.05951172 301.3894043 293.57714844 302.09912109 C294.79025194 303.71978408 296.07948642 305.28299615 297.3828125 306.83203125 C299 309 299 309 299 312 C290.27243145 312.20910634 281.54573278 312.36872821 272.81620026 312.46630955 C268.76197963 312.51316034 264.70948005 312.57663079 260.65625 312.67895508 C256.73979468 312.77720062 252.82498739 312.83064864 248.90739441 312.85389519 C247.41772013 312.87044603 245.92812994 312.90277014 244.43916321 312.95157051 C232.81327033 313.31723271 232.81327033 313.31723271 228.36529541 310.08604431 C226.3195761 307.81940583 224.64866069 305.56530779 223 303 C221.93821614 301.57758955 220.87141254 300.15889435 219.796875 298.74609375 C218.77658342 297.31320726 217.76105359 295.87691976 216.75 294.4375 C215.62756129 292.86108183 214.50383478 291.28557991 213.37890625 289.7109375 C212.8183252 288.92557617 212.25774414 288.14021484 211.68017578 287.33105469 C209.06578497 283.70388186 206.3808264 280.13125417 203.6875 276.5625 C199.75485112 271.34513939 195.86549385 266.1018529 192.03515625 260.80859375 C187.7186134 254.85159892 183.35591052 248.92823481 179 243 C178.45005371 242.25121582 177.90010742 241.50243164 177.33349609 240.73095703 C170.59961374 231.56534209 163.84646144 222.4158902 156.99438477 213.33813477 C156.54119873 212.73670654 156.0880127 212.13527832 155.62109375 211.515625 C155.18522949 210.94005859 154.74936523 210.36449219 154.30029297 209.77148438 C153.39091797 208.5325762 152.51187227 207.27109098 151.65673828 205.99414062 C150.50562053 204.2818476 149.25930453 202.63437193 148 201 C147.01 201 146.02 201 145 201 C143.47868281 202.5550336 143.47868281 202.5550336 142.1171875 204.6484375 C141.32634766 205.78539062 141.32634766 205.78539062 140.51953125 206.9453125 C139.97683594 207.74710938 139.43414063 208.54890625 138.875 209.375 C138.32457031 210.1690625 137.77414062 210.963125 137.20703125 211.78125 C134.40719383 215.77272961 134.40719383 215.77272961 132 220 C131.34 220 130.68 220 130 220 C129.76023437 220.53109375 129.52046875 221.0621875 129.2734375 221.609375 C127.64040961 224.67505925 125.65586294 227.44119988 123.625 230.25 C123.18873291 230.8569873 122.75246582 231.46397461 122.30297852 232.08935547 C116.22853222 240.50342192 109.95547615 248.77072644 103.6953125 257.046875 C99.23871539 262.95635541 94.88128258 268.9268039 90.5625 274.9375 C85.93912144 281.36886256 81.21865934 287.70158473 76.35546875 293.953125 C73.14650104 298.10402851 70.02720367 302.31888577 66.91015625 306.5390625 C62.90578158 311.69807281 62.90578158 311.69807281 59 313 C56.92971727 313.08921886 54.85662411 313.11759651 52.78442383 313.11352539 C51.5033223 313.11344986 50.22222076 313.11337433 48.90229797 313.11329651 C47.50387534 313.10818987 46.1054531 313.10297387 44.70703125 313.09765625 C43.27642364 313.09579089 41.84581539 313.09436754 40.41520691 313.09336853 C36.65213249 313.08955267 32.88909675 313.07973032 29.1260376 313.06866455 C25.28520226 313.05843043 21.44436067 313.05386662 17.60351562 313.04882812 C10.0689928 313.03810722 2.53450182 313.02104196 -5 313 C-5.58349609 311.13476562 -5.58349609 311.13476562 -6 309 C-4.6640625 306.84375 -4.6640625 306.84375 -2.625 304.5 C3.59321084 297.12264533 9.28896507 289.38179986 14.9375 281.5625 C17.78375816 277.62928499 20.70882429 273.77134389 23.6875 269.9375 C27.6829799 264.79213559 31.51831993 259.5452179 35.3125 254.25 C40.66918843 246.78015876 46.19099702 239.45578365 51.796875 232.171875 C59.10378027 222.67556815 66.26250416 213.06758117 73.28515625 203.359375 C74.7760434 201.30813164 76.28553241 199.27442162 77.8125 197.25 C84.66522412 188.15660314 91.34683585 178.93070252 98.01171875 169.69921875 C99.46979944 167.71978111 100.94629655 165.77038764 102.45703125 163.83203125 C102.87001465 163.29731201 103.28299805 162.76259277 103.70849609 162.21166992 C104.8705673 160.71141153 106.04241691 159.21874212 107.21484375 157.7265625 C109.01389262 154.97878107 109.91773453 153.27965015 110 150 C108.74280905 148.34659459 108.74280905 148.34659459 107 147 C106.15784157 145.79096066 105.34847401 144.55879523 104.5625 143.3125 C100.18418523 136.62522321 95.29366237 130.3154376 90.47216797 123.9453125 C84.91217363 116.59837471 79.41318807 109.21153804 74.0078125 101.75 C71.24780577 97.96975732 68.42858372 94.23524332 65.61328125 90.49609375 C62.39741732 86.20869737 59.23445565 81.8824096 56.0625 77.5625 C51.32201053 71.11090158 46.50675735 64.73347202 41.6015625 58.40625 C38.4588423 54.32046878 35.42203358 50.15731789 32.375 46 C24.71996525 35.56256703 16.89188656 25.25924358 9 15 C8.35401855 14.15985352 7.70803711 13.31970703 7.04248047 12.45410156 C6.41873535 11.64682617 5.79499023 10.83955078 5.15234375 10.0078125 C4.59409912 9.28480957 4.03585449 8.56180664 3.46069336 7.81689453 C1.97937233 5.90734454 1.97937233 5.90734454 0 4 C0 2.68 0 1.36 0 0 Z " fill="#FDFEFE" transform="translate(1182,200)"/>
<path d="M0 0 C48.84 0 97.68 0 148 0 C148 63.36 148 126.72 148 192 C99.16 192 50.32 192 0 192 C0 128.64 0 65.28 0 0 Z " fill="#000000" transform="translate(540,260)"/>
<path d="M0 0 C1.11696762 0.00222061 2.23393524 0.00444122 3.38475037 0.00672913 C4.66370178 0.00684998 5.9426532 0.00697083 7.26036072 0.00709534 C8.629217 0.01213181 9.99807281 0.01729844 11.3669281 0.02259827 C12.60438782 0.02360535 13.84184753 0.02461243 15.11680603 0.02565002 C19.76138733 0.03090167 24.40595547 0.04486277 29.05052185 0.05775452 C39.42489685 0.07837952 49.79927185 0.09900452 60.48802185 0.12025452 C60.48802185 21.24025452 60.48802185 42.36025452 60.48802185 64.12025452 C60.15802185 64.12025452 59.82802185 64.12025452 59.48802185 64.12025452 C59.48802185 43.33025452 59.48802185 22.54025452 59.48802185 1.12025452 C54.86802185 1.78025452 50.24802185 2.44025452 45.48802185 3.12025452 C41.65862107 3.2597782 37.91531265 3.33567544 34.0934906 3.28041077 C32.59523491 3.27260841 32.59523491 3.27260841 31.06671143 3.26464844 C27.93615351 3.24710303 24.80594995 3.21591019 21.67552185 3.18275452 C18.49871494 3.15512175 15.32195162 3.13048491 12.14508057 3.11157227 C10.18189345 3.09931569 8.21873102 3.08171259 6.25564575 3.05825806 C5.37995438 3.05172714 4.504263 3.04519623 3.60203552 3.03846741 C2.82929794 3.03021439 2.05656036 3.02196136 1.26040649 3.01345825 C-0.5379973 2.92517483 -0.5379973 2.92517483 -1.51197815 4.12025452 C-1.63430459 5.59276096 -1.68972375 7.07091163 -1.71730042 8.54823303 C-1.73724564 9.48913284 -1.75719086 10.43003265 -1.77774048 11.39944458 C-1.79445297 12.42235092 -1.81116547 13.44525726 -1.8283844 14.49916077 C-1.8491655 15.54095993 -1.86994659 16.58275909 -1.89135742 17.65612793 C-1.95696872 20.99826699 -2.01579145 24.34048737 -2.07447815 27.68275452 C-2.11765237 29.9425287 -2.16126629 32.20229453 -2.20533752 34.46205139 C-2.31266182 40.01469872 -2.41440627 45.56742772 -2.51197815 51.12025452 C-2.84197815 51.12025452 -3.17197815 51.12025452 -3.51197815 51.12025452 C-3.53724602 44.01780452 -3.55481016 36.91536604 -3.56690979 29.81288147 C-3.57195164 27.39458279 -3.57878493 24.97628718 -3.5874176 22.55799866 C-3.59948972 19.09046168 -3.60520778 15.62296485 -3.6096344 12.15541077 C-3.61479568 11.06688309 -3.61995697 9.97835541 -3.62527466 8.85684204 C-3.62535019 7.85587997 -3.62542572 6.85491791 -3.62550354 5.82362366 C-3.62772415 4.93759964 -3.62994476 4.05157562 -3.63223267 3.13870239 C-3.45140623 0.10356703 -3.05371505 0.14618878 0 0 Z " fill="#3760AF" transform="translate(1051.511978149414,399.87974548339844)"/>
<path d="M0 0 C0.33 0 0.66 0 1 0 C1 22.11 1 44.22 1 67 C0.67 67 0.34 67 0 67 C-0.33 64.36 -0.66 61.72 -1 59 C-1.33 61.31 -1.66 63.62 -2 66 C-2.33 66 -2.66 66 -3 66 C-3.01030746 65.32205887 -3.02061493 64.64411774 -3.03123474 63.94563293 C-3.13942275 56.88903397 -3.25401084 49.83255952 -3.37231445 42.77612305 C-3.41562383 40.14268601 -3.45730175 37.50922161 -3.49731445 34.87573242 C-3.55511355 31.09024817 -3.61878067 27.30490111 -3.68359375 23.51953125 C-3.70030624 22.34227982 -3.71701874 21.16502838 -3.73423767 19.95210266 C-3.75418289 18.85133896 -3.77412811 17.75057526 -3.79467773 16.61645508 C-3.81022202 15.65048904 -3.8257663 14.68452301 -3.84178162 13.68928528 C-3.99760974 11.04062799 -4.41408544 8.58456095 -5 6 C-4.34 6 -3.68 6 -3 6 C-2.34 7.32 -1.68 8.64 -1 10 C-0.67 6.7 -0.34 3.4 0 0 Z " fill="#040933" transform="translate(1115,246)"/>
<path d="M0 0 C0.33 0 0.66 0 1 0 C1.33 2.64 1.66 5.28 2 8 C2.33 5.36 2.66 2.72 3 0 C3.33 0 3.66 0 4 0 C4 19.8 4 39.6 4 60 C0 57 0 57 -0.48101807 54.47529602 C-0.47213562 53.46935898 -0.46325317 52.46342194 -0.45410156 51.42700195 C-0.45379944 50.28604568 -0.45349731 49.14508942 -0.45318604 47.96955872 C-0.43254089 46.73823715 -0.41189575 45.50691559 -0.390625 44.23828125 C-0.38496521 42.97735153 -0.37930542 41.71642181 -0.37347412 40.4172821 C-0.35486056 37.06804732 -0.31893566 33.71990283 -0.2746582 30.37097168 C-0.23370857 26.95248837 -0.21546388 23.53389236 -0.1953125 20.11523438 C-0.15116211 13.40985451 -0.08418642 6.70499021 0 0 Z " fill="#080C37" transform="translate(1112,404)"/>
<path d="M0 0 C18.81 0 37.62 0 57 0 C57 0.33 57 0.66 57 1 C50.68476582 1.94239229 44.57022077 2.11753786 38.19140625 2.0625 C37.18407944 2.05871338 36.17675262 2.05492676 35.13890076 2.05102539 C31.94672209 2.03888212 28.754637 2.02023236 25.5625 2 C21.33463819 1.97351082 17.10681923 1.95349943 12.87890625 1.9375 C11.90297012 1.92920166 10.927034 1.92090332 9.92152405 1.91235352 C9.02646652 1.90905029 8.131409 1.90574707 7.20922852 1.90234375 C6.41839371 1.89710693 5.6275589 1.89187012 4.8127594 1.88647461 C2.97881287 1.80067789 2.97881287 1.80067789 2 3 C1.87767356 4.47250645 1.8222544 5.95065711 1.79467773 7.42797852 C1.77473251 8.36887833 1.75478729 9.30977814 1.73423767 10.27919006 C1.71752518 11.30209641 1.70081268 12.32500275 1.68359375 13.37890625 C1.66281265 14.42070541 1.64203156 15.46250458 1.62062073 16.53587341 C1.55500943 19.87801247 1.49618669 23.22023285 1.4375 26.5625 C1.39432578 28.82227418 1.35071186 31.08204001 1.30664062 33.34179688 C1.19931633 38.89444421 1.09757188 44.44717321 1 50 C0.67 50 0.34 50 0 50 C0 33.5 0 17 0 0 Z " fill="#3F77CB" transform="translate(1048,401)"/>
<path d="M0 0 C5.625 -0.25 5.625 -0.25 9 2 C10.88255242 2.40161118 12.7820787 2.72675136 14.6875 3 C19.56073222 3.74608416 24.24178193 4.71894129 29 6 C29 6.33 29 6.66 29 7 C24.71 6.67 20.42 6.34 16 6 C16 5.34 16 4.68 16 4 C14.35 4.66 12.7 5.32 11 6 C11 7.32 11 8.64 11 10 C11.99 10 12.98 10 14 10 C14 10.99 14 11.98 14 13 C10.99648162 11.54978861 8.13932599 9.95835463 5.3125 8.1875 C4.52488281 7.70667969 3.73726562 7.22585938 2.92578125 6.73046875 C0.54461612 4.5908011 0.31330157 3.1277055 0 0 Z " fill="#488CF3" transform="translate(1652,293)"/>
<path d="M0 0 C1.77049689 -0.05410687 3.54146849 -0.09284119 5.3125 -0.125 C6.29863281 -0.14820313 7.28476563 -0.17140625 8.30078125 -0.1953125 C11 0 11 0 14 2 C14 2.66 14 3.32 14 4 C14.73605469 3.97679687 15.47210937 3.95359375 16.23046875 3.9296875 C17.20628906 3.91164063 18.18210937 3.89359375 19.1875 3.875 C20.15042969 3.85179687 21.11335938 3.82859375 22.10546875 3.8046875 C25.37755561 4.02547609 28.59681294 4.59681294 31 7 C33.01594582 7.23427778 35.038474 7.41336124 37.0625 7.5625 C38.71958984 7.68818359 38.71958984 7.68818359 40.41015625 7.81640625 C41.26480469 7.87699219 42.11945313 7.93757812 43 8 C43 8.33 43 8.66 43 9 C41.2508503 9.33776684 39.50063855 9.67003671 37.75 10 C36.28820313 10.2784375 36.28820313 10.2784375 34.796875 10.5625 C32 11 32 11 28 11 C27.896875 10.360625 27.79375 9.72125 27.6875 9.0625 C27.460625 8.381875 27.23375 7.70125 27 7 C23.83754459 5.9458482 21.13051782 5.68724328 17.8125 5.4375 C16.72582031 5.35371094 15.63914062 5.26992188 14.51953125 5.18359375 C13.68808594 5.12300781 12.85664062 5.06242188 12 5 C12 4.01 12 3.02 12 2 C8.04 1.67 4.08 1.34 0 1 C0 0.67 0 0.34 0 0 Z " fill="#3B77D0" transform="translate(1118,652)"/>
<path d="M0 0 C1.61867477 0.01485695 1.61867477 0.01485695 3.27005005 0.03001404 C6.7048738 0.0690903 10.13646056 0.15690591 13.5703125 0.24609375 C15.90359957 0.28121607 18.2369369 0.31315345 20.5703125 0.34179688 C26.27974371 0.41882958 31.98729685 0.53585136 37.6953125 0.68359375 C37.6953125 1.01359375 37.6953125 1.34359375 37.6953125 1.68359375 C37.11981659 1.68279816 36.54432068 1.68200256 35.9513855 1.68118286 C29.94849232 1.67874059 23.94688894 1.71800976 17.94433594 1.78125 C15.70579016 1.79939162 13.46713253 1.80698186 11.22851562 1.80371094 C8.00563327 1.8008487 4.78506186 1.83621895 1.5625 1.87890625 C0.56540009 1.86981232 -0.43169983 1.86071838 -1.45901489 1.85134888 C-6.38310852 1.95379466 -9.39422531 2.16833019 -12.98388672 5.73388672 C-13.74975098 6.70729004 -14.51561523 7.68069336 -15.3046875 8.68359375 C-15.9646875 8.35359375 -16.6246875 8.02359375 -17.3046875 7.68359375 C-12.75341391 0.18715967 -8.38804186 -0.29115846 0 0 Z " fill="#E9FAFF" transform="translate(1418.3046875,199.31640625)"/>
<path d="M0 0 C0.66 0 1.32 0 2 0 C1.67 15.18 1.34 30.36 1 46 C0.67 46 0.34 46 0 46 C-0.1678363 39.60978608 -0.32779785 33.21941052 -0.48217773 26.82885742 C-0.53568301 24.65303032 -0.59101865 22.47724745 -0.64819336 20.30151367 C-0.72986715 17.18157494 -0.80504532 14.06153847 -0.87890625 10.94140625 C-0.90594131 9.96224747 -0.93297638 8.98308868 -0.96083069 7.97425842 C-0.98092697 7.07340012 -1.00102325 6.17254181 -1.02172852 5.24438477 C-1.04171402 4.44718521 -1.06169952 3.64998566 -1.08229065 2.82862854 C-1 1 -1 1 0 0 Z " fill="#07000B" transform="translate(1113,401)"/>
<path d="M0 0 C0.33 0 0.66 0 1 0 C1.01981934 1.30146973 1.03963867 2.60293945 1.06005859 3.94384766 C1.13629747 8.78583684 1.22498674 13.62753268 1.31738281 18.46923828 C1.35559706 20.5622782 1.39046298 22.6553821 1.421875 24.74853516 C1.46768959 27.76227641 1.52565719 30.77558008 1.5859375 33.7890625 C1.59748871 34.72054108 1.60903992 35.65201965 1.62094116 36.61172485 C1.73021117 41.45366549 2.12502359 45.45400455 4 50 C3.34 50 2.68 50 2 50 C-0.13363651 46.79954524 -0.24672228 46.01370564 -0.22705078 42.3449707 C-0.22689972 41.40422195 -0.22674866 40.46347321 -0.22659302 39.49421692 C-0.21627045 38.48163315 -0.20594788 37.46904938 -0.1953125 36.42578125 C-0.1924826 35.38681198 -0.18965271 34.34784271 -0.18673706 33.27738953 C-0.17553282 29.95564303 -0.15042764 26.63416515 -0.125 23.3125 C-0.11497052 21.06185285 -0.10584462 18.81120148 -0.09765625 16.56054688 C-0.0755927 11.04027278 -0.04211271 5.52015558 0 0 Z " fill="#01021C" transform="translate(971,560)"/>
<path d="M0 0 C0.66 0.33 1.32 0.66 2 1 C0.97916667 2.16666667 -0.04166667 3.33333333 -1.0625 4.5 C-1.69542969 5.22574219 -2.32835937 5.95148437 -2.98046875 6.69921875 C-4.30682354 8.21028833 -5.64252458 9.71321491 -6.98828125 11.20703125 C-7.61089844 11.90183594 -8.23351563 12.59664062 -8.875 13.3125 C-9.44992187 13.94800781 -10.02484375 14.58351563 -10.6171875 15.23828125 C-12.20738006 17.06047321 -12.20738006 17.06047321 -13 20 C-13.66 19.67 -14.32 19.34 -15 19 C-12.92073621 13.21453969 -10.2655966 9.74285099 -5.8125 5.5625 C-5.25369141 5.02173828 -4.69488281 4.48097656 -4.11914062 3.92382812 C-2.75513709 2.60645719 -1.37881636 1.30185917 0 0 Z " fill="#040F40" transform="translate(1717,532)"/>
<path d="M0 0 C0.64453125 1.80078125 0.64453125 1.80078125 1 4 C-2.98461538 9.49230769 -2.98461538 9.49230769 -6 11 C-6.103125 11.598125 -6.20625 12.19625 -6.3125 12.8125 C-7.30393819 15.96707605 -9.37688273 17.11673632 -12 19 C-12 15.52309251 -11.43327704 14.88707948 -9.375 12.20703125 C-8.83359375 11.49482422 -8.2921875 10.78261719 -7.734375 10.04882812 C-7.16203125 9.31083984 -6.5896875 8.57285156 -6 7.8125 C-5.42765625 7.06291016 -4.8553125 6.31332031 -4.265625 5.54101562 C-2.85007751 3.68900765 -1.42806196 1.84236451 0 0 Z " fill="#7DA9FF" transform="translate(1468,211)"/>
<path d="M0 0 C0.66 0.33 1.32 0.66 2 1 C3.86978658 1.34231477 5.74604847 1.64971122 7.625 1.9375 C12.50814857 2.71998043 17.22667543 3.71487415 22 5 C22 5.33 22 5.66 22 6 C17.71 5.67 13.42 5.34 9 5 C9 4.34 9 3.68 9 3 C6.36 3 3.72 3 1 3 C0.67 3.66 0.34 4.32 0 5 C-0.33 4.34 -0.66 3.68 -1 3 C-0.67 2.01 -0.34 1.02 0 0 Z " fill="#3377D6" transform="translate(1659,294)"/>
<path d="M0 0 C3.91593446 0.78318689 7.36406635 2.39179858 11 4 C10.67 4.99 10.34 5.98 10 7 C6.7 5.35 3.4 3.7 0 2 C0 1.34 0 0.68 0 0 Z " fill="#4B92F2" transform="translate(506,503)"/>
<path d="M0 0 C7 2 7 2 14 4 C14 4.33 14 4.66 14 5 C7.375 6.125 7.375 6.125 4 5 C4 4.34 4 3.68 4 3 C2.68 2.67 1.36 2.34 0 2 C0 1.34 0 0.68 0 0 Z " fill="#4389E9" transform="translate(1681,300)"/>
<path d="M0 0 C-1.0828125 0.61875 -1.0828125 0.61875 -2.1875 1.25 C-4.97969862 2.98736803 -7.47012585 4.90381857 -10 7 C-10.66 6.67 -11.32 6.34 -12 6 C-5.84787736 -1.81485849 -5.84787736 -1.81485849 0 0 Z " fill="#4486E8" transform="translate(880,205)"/>
<path d="M0 0 C1.32 0.33 2.64 0.66 4 1 C1.36 3.64 -1.28 6.28 -4 9 C-4.66 8.67 -5.32 8.34 -6 8 C-5.566875 7.608125 -5.13375 7.21625 -4.6875 6.8125 C-2.73633776 4.71680722 -1.40989838 2.48410667 0 0 Z " fill="#437DE3" transform="translate(1638,529)"/>
<path d="M0 0 C3.40312738 1.05875074 6.01353231 2.00902154 9 4 C8.67 4.99 8.34 5.98 8 7 C6.66144944 6.21718695 5.32926356 5.42348123 4 4.625 C3.2575 4.18414063 2.515 3.74328125 1.75 3.2890625 C1.1725 2.86367188 0.595 2.43828125 0 2 C0 1.34 0 0.68 0 0 Z " fill="#4D8AEC" transform="translate(1026,673)"/>
<path d="M0 0 C5.95703125 -0.29296875 5.95703125 -0.29296875 8 0 C8.99 0.99 9.98 1.98 11 3 C7.7 3 4.4 3 1 3 C0.67 2.01 0.34 1.02 0 0 Z " fill="#5A9CFF" transform="translate(245,152)"/>
<path d="M0 0 C1 2 1 2 0.25 4.5 C-1 7 -1 7 -4 9 C-4.99 8.67 -5.98 8.34 -7 8 C-4.69 5.36 -2.38 2.72 0 0 Z " fill="#3F7DE7" transform="translate(1690,475)"/>
<path d="M0 0 C0.33 0.99 0.66 1.98 1 3 C-3.75 7 -3.75 7 -6 7 C-6 7.66 -6 8.32 -6 9 C-6.66 9 -7.32 9 -8 9 C-6.90101298 5.70303895 -6.05402613 4.95329411 -3.4375 2.8125 C-2.79683594 2.28269531 -2.15617187 1.75289062 -1.49609375 1.20703125 C-0.75552734 0.60955078 -0.75552734 0.60955078 0 0 Z " fill="#407FED" transform="translate(1612,550)"/>
<path d="M0 0 C0.33 0.66 0.66 1.32 1 2 C-0.2739589 4.03833424 -1.61061923 6.03852126 -3 8 C-3.66 8 -4.32 8 -5 8 C-5 8.99 -5 9.98 -5 11 C-5.66 10.67 -6.32 10.34 -7 10 C-2.85714286 2.42857143 -2.85714286 2.42857143 0 0 Z " fill="#031453" transform="translate(1749,496)"/>
<path d="M0 0 C0.33 0.66 0.66 1.32 1 2 C-0.98 4.64 -2.96 7.28 -5 10 C-5.99 9.67 -6.98 9.34 -8 9 C-5.36 6.03 -2.72 3.06 0 0 Z " fill="#4280ED" transform="translate(1676,493)"/>
<path d="M0 0 C0.70125 0.144375 1.4025 0.28875 2.125 0.4375 C1.3825 1.015 0.64 1.5925 -0.125 2.1875 C-2.53587643 4.16003526 -4.71542701 6.19794282 -6.875 8.4375 C-7.535 8.1075 -8.195 7.7775 -8.875 7.4375 C-3.7809081 0.57535558 -3.7809081 0.57535558 0 0 Z " fill="#D8EBFF" transform="translate(1409.875,199.5625)"/>
<path d="M0 0 C0.99 0.495 0.99 0.495 2 1 C2 1.66 2 2.32 2 3 C2.66 3 3.32 3 4 3 C5.38938077 4.96147874 6.7260411 6.96166576 8 9 C5.5625 8.1875 5.5625 8.1875 3 7 C2.67 6.01 2.34 5.02 2 4 C1.34 4 0.68 4 0 4 C0 2.68 0 1.36 0 0 Z " fill="#438CEE" transform="translate(353,135)"/>
<path d="M0 0 C0.66 0.33 1.32 0.66 2 1 C-3.14285714 6.57142857 -3.14285714 6.57142857 -7 7 C-7.33 6.34 -7.66 5.68 -8 5 C-6.71475739 4.13619741 -5.42157581 3.28419631 -4.125 2.4375 C-3.04605469 1.72400391 -3.04605469 1.72400391 -1.9453125 0.99609375 C-1.30335937 0.66738281 -0.66140625 0.33867188 0 0 Z " fill="#4276DE" transform="translate(1621,544)"/>
<path d="M0 0 C1.65 0.33 3.3 0.66 5 1 C5 1.66 5 2.32 5 3 C2.29120665 4.35439668 -0.00933268 4.06501451 -3 4 C-2.01 2.68 -1.02 1.36 0 0 Z " fill="#3D7DDF" transform="translate(1518,568)"/>
<path d="M0 0 C-0.33 0.99 -0.66 1.98 -1 3 C-2.98 3 -4.96 3 -7 3 C-6.67 2.01 -6.34 1.02 -6 0 C-3.50907189 -1.24546405 -2.58919267 -0.7767578 0 0 Z " fill="#4CA0FC" transform="translate(332,488)"/>
<path d="M0 0 C0.33 0 0.66 0 1 0 C1.10824843 1.6026782 1.18570645 3.20745748 1.25 4.8125 C1.29640625 5.70582031 1.3428125 6.59914063 1.390625 7.51953125 C1 10 1 10 -1.015625 11.82421875 C-1.67046875 12.21222656 -2.3253125 12.60023438 -3 13 C-2.690625 12.154375 -2.38125 11.30875 -2.0625 10.4375 C-0.98461179 6.9502146 -0.43418696 3.61822465 0 0 Z " fill="#3E75D3" transform="translate(1716,415)"/>
<path d="M0 0 C0.33 0.99 0.66 1.98 1 3 C-1.31 5.31 -3.62 7.62 -6 10 C-6 6.41087588 -5.33563446 5.89142971 -3 3.3125 C-2.443125 2.68988281 -1.88625 2.06726563 -1.3125 1.42578125 C-0.879375 0.95527344 -0.44625 0.48476563 0 0 Z " fill="#81ADFF" transform="translate(1396,308)"/>
<path d="M0 0 C1.134375 0.020625 2.26875 0.04125 3.4375 0.0625 C3.4375 0.7225 3.4375 1.3825 3.4375 2.0625 C0.7975 2.7225 -1.8425 3.3825 -4.5625 4.0625 C-4.5625 -0.28271095 -4.43767807 0.077854 0 0 Z " fill="#58A2FB" transform="translate(1346.5625,659.9375)"/>
<path d="M0 0 C-3.1254959 2.64465038 -6.08788267 3.84414715 -10 5 C-9 2 -9 2 -7.25 0.8125 C-4.70039426 -0.10819096 -2.69076919 -0.14948718 0 0 Z " fill="#3A78E8" transform="translate(1521,655)"/>
<path d="M0 0 C-0.99 0.495 -0.99 0.495 -2 1 C-1.67 1.66 -1.34 2.32 -1 3 C-2.32 3.33 -3.64 3.66 -5 4 C-5 3.34 -5 2.68 -5 2 C-6.65 2 -8.3 2 -10 2 C-10 1.67 -10 1.34 -10 1 C-3.71428571 -1.42857143 -3.71428571 -1.42857143 0 0 Z " fill="#3D83E6" transform="translate(1424,643)"/>
<path d="M0 0 C0.33 0 0.66 0 1 0 C1 2.64 1 5.28 1 8 C-0.98 8.99 -0.98 8.99 -3 10 C-2.01 6.7 -1.02 3.4 0 0 Z " fill="#3577E0" transform="translate(848,233)"/>
<path d="M0 0 C-1.65 1.65 -3.3 3.3 -5 5 C-5.33 4.34 -5.66 3.68 -6 3 C-6.99 2.34 -7.98 1.68 -9 1 C-5.92677456 0.08941469 -3.19902639 -0.08886184 0 0 Z " fill="#3F87E3" transform="translate(1361,657)"/>
<path d="M0 0 C0.75 1.75 0.75 1.75 1 4 C-0.8125 6.25 -0.8125 6.25 -3 8 C-3.66 8 -4.32 8 -5 8 C-3.62845496 5.04590299 -2.01136276 2.55991624 0 0 Z " fill="#7AA9FF" transform="translate(1374,337)"/>
<path d="M0 0 C0.66 0.33 1.32 0.66 2 1 C-0.12055614 4.1808342 -1.63050557 5.31525278 -5 7 C-5.66 6.67 -6.32 6.34 -7 6 C-4.69 4.02 -2.38 2.04 0 0 Z " fill="#4A83E7" transform="translate(503,208)"/>
<path d="M0 0 C3.96 1.98 3.96 1.98 8 4 C6.02 4.99 6.02 4.99 4 6 C3.01 5.67 2.02 5.34 1 5 C0.67 3.35 0.34 1.7 0 0 Z " fill="#4E93EB" transform="translate(1472,50)"/>
<path d="M0 0 C4.75 0.75 4.75 0.75 7 3 C6.67 3.99 6.34 4.98 6 6 C3.97945196 4.35830472 1.97956942 2.69088222 0 1 C0 0.67 0 0.34 0 0 Z " fill="#4A9AF2" transform="translate(1056,618)"/>
<path d="M0 0 C0.33 1.32 0.66 2.64 1 4 C-1.35438733 5.42944945 -2.48032433 6.08661261 -5.25 5.625 C-5.8275 5.41875 -6.405 5.2125 -7 5 C-6.21625 4.54625 -5.4325 4.0925 -4.625 3.625 C-1.96301969 2.11571258 -1.96301969 2.11571258 0 0 Z " fill="#86AAFF" transform="translate(1248,507)"/>
<path d="M0 0 C0.99 0 1.98 0 3 0 C4.06775224 1.96466413 5.06553465 3.96855359 6 6 C5.67 6.66 5.34 7.32 5 8 C4.16382818 6.8562364 3.33113541 5.70992861 2.5 4.5625 C2.0359375 3.92441406 1.571875 3.28632813 1.09375 2.62890625 C0 1 0 1 0 0 Z " fill="#6FA0FF" transform="translate(1315,286)"/>
<path d="M0 0 C0.75 1.75 0.75 1.75 1 4 C-0.9375 6.25 -0.9375 6.25 -3 8 C-2.45276317 4.62537285 -1.9451 2.91765 0 0 Z " fill="#6E9FFF" transform="translate(1468,211)"/>
</svg>
