<?xml version="1.0" encoding="UTF-8"?>
<!DOCTYPE svg PUBLIC "-//W3C//DTD SVG 1.1//EN" "http://www.w3.org/Graphics/SVG/1.1/DTD/svg11.dtd">
<svg xmlns="http://www.w3.org/2000/svg" version="1.1" width="1024px" height="1024px" style="shape-rendering:geometricPrecision; text-rendering:geometricPrecision; image-rendering:optimizeQuality; fill-rule:evenodd; clip-rule:evenodd" xmlns:xlink="http://www.w3.org/1999/xlink">
<g><path style="opacity:1" fill="#2583fb" d="M 618.5,42.5 C 618.5,120.5 618.5,198.5 618.5,276.5C 696.5,276.5 774.5,276.5 852.5,276.5C 853.666,491.666 853.833,707 853,922.5C 849.828,948.344 836.328,966.511 812.5,977C 806.987,978.969 801.321,980.303 795.5,981C 606.5,981.667 417.5,981.667 228.5,981C 202.656,977.828 184.489,964.328 174,940.5C 172.031,934.987 170.697,929.321 170,923.5C 169.333,649.167 169.333,374.833 170,100.5C 173.172,74.656 186.672,56.4893 210.5,46C 216.013,44.0307 221.679,42.6973 227.5,42C 358.001,41.1673 488.334,41.334 618.5,42.5 Z"/></g>
<g><path style="opacity:1" fill="#0066da" d="M 618.5,42.5 C 696.833,120.167 774.833,198.167 852.5,276.5C 774.5,276.5 696.5,276.5 618.5,276.5C 618.5,198.5 618.5,120.5 618.5,42.5 Z"/></g>
<g><path style="opacity:1" fill="#fcfdfe" d="M 319.5,404.5 C 447.5,404.5 575.5,404.5 703.5,404.5C 703.5,422.5 703.5,440.5 703.5,458.5C 575.5,458.5 447.5,458.5 319.5,458.5C 319.5,440.5 319.5,422.5 319.5,404.5 Z"/></g>
<g><path style="opacity:1" fill="#fcfdfe" d="M 319.5,532.5 C 447.5,532.5 575.5,532.5 703.5,532.5C 703.5,550.5 703.5,568.5 703.5,586.5C 575.5,586.5 447.5,586.5 319.5,586.5C 319.5,568.5 319.5,550.5 319.5,532.5 Z"/></g>
<g><path style="opacity:1" fill="#fefffe" d="M 319.5,661.5 C 411.833,661.5 504.167,661.5 596.5,661.5C 596.5,678.833 596.5,696.167 596.5,713.5C 504.167,713.5 411.833,713.5 319.5,713.5C 319.5,696.167 319.5,678.833 319.5,661.5 Z"/></g>
<g><path style="opacity:1" fill="#9ac5fd" d="M 319.5,661.5 C 411.999,660.501 504.665,660.167 597.5,660.5C 597.5,678.5 597.5,696.5 597.5,714.5C 504.665,714.833 411.999,714.499 319.5,713.5C 411.833,713.5 504.167,713.5 596.5,713.5C 596.5,696.167 596.5,678.833 596.5,661.5C 504.167,661.5 411.833,661.5 319.5,661.5 Z"/></g>
</svg>
